<svg version="1.0" xmlns="http://www.w3.org/2000/svg"
 width="512.000000pt" height="512.000000pt" viewBox="0 0 512.000000 512.000000"
 preserveAspectRatio="xMidYMid meet">

<g transform="translate(0.000000,512.000000) scale(0.100000,-0.100000)"
fill="#000000" stroke="none">
<path d="M2260 5069 c-427 -17 -836 -125 -1099 -291 -143 -90 -405 -303 -518
-419 -74 -78 -225 -269 -299 -379 -192 -288 -317 -734 -318 -1135 0 -184 14
-283 75 -534 87 -355 286 -761 477 -971 73 -81 219 -211 336 -299 50 -38 108
-92 129 -119 86 -114 392 -404 557 -528 189 -143 506 -265 815 -316 127 -21
634 -17 755 5 158 29 421 87 495 108 316 93 771 463 1001 815 164 250 287 538
361 844 99 410 96 546 -23 1030 -48 194 -96 332 -164 465 -144 284 -342 522
-586 706 -65 49 -117 99 -168 162 -96 119 -170 190 -341 327 -200 160 -339
249 -546 352 -198 98 -345 152 -454 167 -101 14 -283 18 -485 10z m591 -211
c134 -46 436 -197 554 -276 138 -93 350 -265 450 -366 204 -205 410 -592 483
-911 36 -157 45 -280 39 -549 -6 -280 -18 -361 -81 -547 -61 -184 -196 -462
-304 -627 -126 -194 -508 -515 -767 -645 -264 -132 -776 -235 -1026 -207 -104
12 -350 65 -505 110 -168 48 -420 165 -577 267 -176 114 -412 329 -501 456
-77 108 -247 455 -294 597 -51 157 -108 411 -123 556 -30 280 62 738 206 1029
92 186 314 464 492 617 367 315 541 403 975 492 180 37 281 44 593 42 l280 -1
106 -37z m1660 -1306 c97 -129 98 -144 6 -52 -59 57 -91 97 -101 125 -7 22
-17 49 -21 60 -9 25 41 -33 116 -133z m323 -700 c16 -64 31 -124 34 -132 2 -8
-67 56 -155 144 l-161 158 -11 106 c-7 58 -15 111 -18 117 -3 5 59 -54 139
-133 l144 -143 28 -117z m-90 -261 l179 -179 5 -75 c9 -148 16 -150 -193 61
l-184 187 -1 93 c0 50 3 92 8 92 4 0 88 -81 186 -179z m131 -630 c-3 -24 -10
-62 -16 -84 l-11 -40 -184 184 -185 185 16 70 c9 38 19 75 21 82 2 8 79 -63
184 -170 l180 -183 -5 -44z m-106 -377 c-14 -37 -29 -69 -35 -71 -5 -2 -94 81
-197 185 l-187 188 32 72 32 73 190 -190 189 -189 -24 -68z m-139 -305 c-16
-32 -34 -60 -39 -63 -8 -6 -381 374 -381 388 0 3 14 31 31 62 l32 56 193 -193
193 -192 -29 -58z m-328 -26 c104 -103 188 -192 188 -197 0 -5 -17 -30 -37
-55 -20 -25 -38 -48 -40 -50 -3 -4 -385 367 -391 379 -3 7 78 110 87 110 3 0
90 -84 193 -187z m-13 -431 c3 -1 -18 -26 -47 -55 l-52 -52 -200 200 c-110
110 -199 203 -198 206 2 3 25 25 52 48 l49 43 196 -194 c107 -106 197 -194
200 -196z m-432 -14 l202 -203 -58 -41 -58 -42 -202 202 -202 203 53 41 c29
22 55 41 58 41 3 1 96 -90 207 -201z m-265 -175 c109 -109 198 -201 198 -204
0 -4 -30 -19 -66 -35 l-65 -28 -199 199 -198 198 62 33 c33 18 63 33 66 34 3
0 94 -89 202 -197z m-1907 32 l126 -34 155 -148 c85 -81 151 -149 145 -151
-15 -5 -188 65 -272 110 -60 32 -102 66 -191 156 -62 63 -108 112 -101 108 6
-3 68 -22 138 -41z m1587 -155 c95 -99 174 -184 176 -189 1 -4 -32 -15 -75
-24 l-78 -16 -184 184 -184 183 64 20 c35 11 74 21 86 21 15 1 70 -49 195
-179z m-365 -82 c95 -95 173 -176 173 -179 0 -4 -39 -10 -86 -14 l-87 -7 -168
168 c-93 93 -169 172 -169 175 0 6 98 24 145 28 13 1 76 -55 192 -171z m-612
123 l50 -1 160 -161 160 -161 -85 7 c-47 3 -96 8 -110 11 -16 3 -85 64 -183
162 l-158 158 58 -7 c32 -4 81 -8 108 -8z"/>
<path d="M1383 3967 c-31 -17 -105 -106 -174 -208 -31 -47 -72 -98 -90 -113
-32 -27 -101 -66 -117 -66 -5 0 -19 23 -32 51 -27 57 -80 109 -111 109 -25 0
-60 -18 -76 -39 -18 -24 -15 -75 5 -102 11 -13 35 -56 56 -94 61 -119 123
-134 264 -65 101 48 165 107 237 216 30 46 77 108 105 139 56 62 68 93 50 134
-18 45 -72 63 -117 38z"/>
<path d="M2371 3773 c-511 -3 -556 -5 -574 -21 -48 -43 -39 -114 19 -138 37
-15 576 -17 1511 -5 465 6 483 7 502 26 35 34 37 77 6 113 l-27 32 -441 -2
c-243 -2 -691 -4 -996 -5z"/>
<path d="M1055 3190 c-128 -32 -227 -125 -267 -252 -23 -77 -23 -140 2 -219
97 -313 522 -350 674 -59 105 201 2 453 -213 520 -64 20 -141 24 -196 10z
m160 -179 c68 -30 125 -113 125 -181 0 -71 -63 -158 -136 -186 -149 -57 -298
85 -254 243 32 113 159 173 265 124z"/>
<path d="M1809 2906 c-32 -19 -52 -68 -40 -99 22 -56 5 -54 551 -65 278 -6
725 -8 994 -5 486 6 488 6 514 28 38 33 36 89 -3 123 l-30 25 -575 -4 c-316
-2 -757 0 -980 4 -353 7 -408 6 -431 -7z"/>
<path d="M1055 2316 c-115 -29 -198 -97 -246 -200 -89 -191 -7 -409 187 -498
40 -19 66 -23 144 -23 83 0 102 3 151 28 67 32 151 118 182 184 18 40 22 66
22 153 0 96 -2 110 -29 163 -36 70 -108 140 -179 172 -65 30 -164 39 -232 21z
m130 -167 c97 -26 150 -103 143 -205 -3 -52 -9 -70 -34 -101 -69 -87 -182
-107 -266 -47 -135 95 -100 306 58 354 40 12 53 11 99 -1z"/>
<path d="M1809 2038 c-24 -9 -48 -61 -41 -93 2 -13 14 -32 26 -44 19 -18 41
-20 281 -28 143 -4 328 -5 410 -1 83 4 411 4 730 1 l580 -6 30 25 c40 35 41
90 1 124 l-27 24 -347 2 c-754 5 -1624 3 -1643 -4z"/>
</g>
</svg>
