<svg width="32" height="32" viewBox="0 0 32 32" fill="none" xmlns="http://www.w3.org/2000/svg">
<path d="M10.4313 18.8531H21.5656C22.0656 18.8531 22.4688 18.45 22.4688 17.95C22.4688 17.45 22.0656 17.0469 21.5656 17.0469H10.4313C9.93126 17.0469 9.52814 17.45 9.52814 17.95C9.53126 18.4531 9.93439 18.8531 10.4313 18.8531ZM10.4313 25.4281H21.5656C22.0656 25.4281 22.4688 25.025 22.4688 24.525C22.4688 24.025 22.0656 23.6219 21.5656 23.6219H10.4313C9.93126 23.6219 9.52814 24.025 9.52814 24.525C9.53126 25.025 9.93439 25.4281 10.4313 25.4281ZM10.4313 12.2812H21.5656C22.0656 12.2812 22.4688 11.8781 22.4688 11.3781C22.4688 10.8781 22.0656 10.475 21.5656 10.475H10.4313C9.93126 10.475 9.52814 10.8781 9.52814 11.3781C9.53126 11.8781 9.93439 12.2812 10.4313 12.2812ZM12.0844 5.70937H19.9125C20.4125 5.70937 20.8156 5.30625 20.8156 4.80625C20.8156 4.30625 20.4125 3.90313 19.9125 3.90313H18.6531C18.7851 3.56877 18.8529 3.21257 18.8531 2.85313C18.8531 1.28125 17.575 0 16 0C14.425 0 13.1469 1.28125 13.1469 2.85313C13.1469 3.225 13.2188 3.57813 13.3469 3.90313H12.0875C11.5875 3.90313 11.1844 4.30625 11.1844 4.80625C11.1844 5.30625 11.5875 5.70937 12.0844 5.70937ZM14.3344 2.85313C14.3344 1.93438 15.0813 1.1875 16 1.1875C16.9188 1.1875 17.6656 1.93438 17.6656 2.85313C17.6656 3.25 17.525 3.61563 17.2906 3.90313H14.7094C14.475 3.61875 14.3344 3.25313 14.3344 2.85313Z" fill="url(#paint0_linear_210_2)"/>
<path d="M26.6656 3.78126H23.575C23.0125 3.78126 22.5594 4.23439 22.5594 4.79689C22.5594 5.35939 23.0125 5.81251 23.575 5.81251H26.6656C27.125 5.81251 27.4969 6.18439 27.4969 6.64376V29.1406C27.4969 29.6 27.125 29.9719 26.6656 29.9719H5.33436C4.87499 29.9719 4.50311 29.6 4.50311 29.1406V6.64064C4.50311 6.18126 4.87499 5.80939 5.33436 5.80939H8.42499C8.98749 5.80939 9.44061 5.35626 9.44061 4.79376C9.44061 4.23126 8.98749 3.77814 8.42499 3.77814H5.33436C3.75624 3.77814 2.47186 5.05939 2.47186 6.64064V29.1375C2.47186 30.7156 3.75311 32 5.33436 32H26.6687C28.2469 32 29.5312 30.7188 29.5312 29.1375V6.64064C29.5281 5.05939 28.2469 3.78126 26.6656 3.78126Z" fill="url(#paint1_linear_210_2)"/>
<defs>
<linearGradient id="paint0_linear_210_2" x1="15.9984" y1="0" x2="15.9984" y2="25.4281" gradientUnits="userSpaceOnUse">
<stop stop-color="#6366F1"/>
<stop offset="1" stop-color="#06B6D4" stop-opacity="0.68"/>
<stop offset="1" stop-color="#06B6D4"/>
</linearGradient>
<linearGradient id="paint1_linear_210_2" x1="16.0016" y1="3.77814" x2="16.0016" y2="32" gradientUnits="userSpaceOnUse">
<stop stop-color="#6366F1"/>
<stop offset="1" stop-color="#06B6D4" stop-opacity="0.68"/>
<stop offset="1" stop-color="#06B6D4"/>
</linearGradient>
</defs>
</svg>
